<svg xmlns="http://www.w3.org/2000/svg" width="1024" height="1024" viewBox="0 0 1024 1024" version="1.1"><path d="M 660 264.987 L 660 286.973 626.250 287.250 L 592.500 287.528 626.750 287.764 L 661 288 661 265.500 C 661 253.125, 660.775 243, 660.500 243 C 660.225 243, 660 252.894, 660 264.987 M 660.437 426 C 660.437 440.575, 660.577 446.538, 660.747 439.250 C 660.918 431.962, 660.918 420.038, 660.747 412.750 C 660.577 405.462, 660.437 411.425, 660.437 426 M 235.784 444.738 C 238.689 444.941, 243.189 444.939, 245.784 444.734 C 248.378 444.528, 246 444.363, 240.500 444.365 C 235 444.368, 232.878 444.536, 235.784 444.738 M 206.470 514 C 206.470 547.275, 206.596 560.888, 206.749 544.250 C 206.903 527.613, 206.903 500.388, 206.749 483.750 C 206.596 467.113, 206.470 480.725, 206.470 514 M 660 600.982 L 660 626.964 636.250 627.251 L 612.500 627.538 636.750 627.769 L 661 628 661 601.500 C 661 586.925, 660.775 575, 660.500 575 C 660.225 575, 660 586.692, 660 600.982 M 221.296 582.744 C 225.583 582.932, 232.333 582.931, 236.296 582.742 C 240.258 582.552, 236.750 582.399, 228.500 582.400 C 220.250 582.401, 217.008 582.556, 221.296 582.744 M 599.768 626.725 C 601.565 626.947, 604.265 626.943, 605.768 626.715 C 607.271 626.486, 605.800 626.304, 602.500 626.310 C 599.200 626.315, 597.971 626.502, 599.768 626.725 M 596.750 739.723 C 598.538 739.945, 601.462 739.945, 603.250 739.723 C 605.038 739.502, 603.575 739.320, 600 739.320 C 596.425 739.320, 594.962 739.502, 596.750 739.723 M 660.430 763 C 660.430 775.925, 660.573 781.212, 660.747 774.750 C 660.921 768.288, 660.921 757.712, 660.747 751.250 C 660.573 744.788, 660.430 750.075, 660.430 763" stroke="none" fill="#a5a7ab" fill-rule="evenodd"/><path d="M 666.110 236.396 C 661.418 238.996, 661.073 240.958, 661.035 265.250 L 661 288 625.461 288 C 589.208 288, 579.484 288.594, 558.744 292.076 C 529.178 297.039, 496.243 309.791, 469 326.823 C 455.831 335.055, 448.916 340.028, 427 357.024 C 366.890 403.640, 345.516 417.543, 315.666 429.437 C 290.093 439.626, 267.793 443.964, 237.500 444.639 C 225.950 444.897, 215.449 445.327, 214.165 445.594 C 212.880 445.862, 210.743 447.253, 209.415 448.686 L 207 451.292 207.004 512.896 C 207.007 572.373, 207.075 574.611, 208.973 577.723 C 210.054 579.496, 211.964 581.155, 213.219 581.409 C 214.474 581.664, 224.725 582.130, 236 582.444 C 268.621 583.354, 294.186 588.137, 319 597.973 C 328.799 601.858, 350.247 613.125, 360.500 619.775 C 372.632 627.643, 389.431 640.059, 405.352 652.924 C 425.439 669.155, 446.097 684.982, 455 690.961 C 485.929 711.734, 519.836 726.856, 549.256 732.999 C 571.095 737.560, 588.065 739.054, 625.250 739.689 L 661 740.299 661 764.134 L 661 787.968 663.918 791.234 C 668.286 796.123, 673.338 795.796, 682.500 790.032 C 689.895 785.380, 716.604 768.255, 751.500 745.791 C 763.050 738.356, 780.825 726.987, 791 720.526 C 826.433 698.028, 842.732 686.883, 843.878 684.369 C 845.599 680.592, 845.225 677.359, 842.750 674.630 C 841.513 673.266, 833.075 667.461, 824 661.732 C 814.925 656.003, 779.825 633.831, 746 612.462 C 712.175 591.093, 682.051 572.122, 679.059 570.305 C 672.067 566.058, 667.893 565.953, 663.923 569.923 L 661 572.846 661 600.423 L 661 628 639.750 627.990 C 602.360 627.973, 578.915 625.524, 557.978 619.448 C 531.524 611.772, 513.700 601.389, 479 573.439 C 442.631 544.145, 423.938 531.170, 402.393 520.263 C 396.132 517.093, 391.007 514.253, 391.004 513.951 C 391.002 513.649, 392.558 512.839, 394.462 512.150 C 397.895 510.909, 411.427 503.445, 422 496.962 C 431.020 491.431, 452.066 476.147, 476 457.747 C 514.803 427.916, 531.438 417.749, 554.683 409.659 C 576.820 401.953, 592.576 400, 632.606 400 L 661 400 661 425.935 C 661 440.363, 661.433 453.008, 661.975 454.434 C 663.126 457.463, 668.485 460.991, 671.942 460.996 C 674.912 461.001, 681.820 456.967, 711 438.187 C 723.375 430.222, 736.650 421.709, 740.500 419.269 C 757.155 408.711, 804.018 378.823, 821.295 367.739 C 844.701 352.723, 846.548 350.738, 843.976 343.360 C 842.938 340.382, 841.518 339.446, 777 299.154 C 769.575 294.517, 753.375 284.324, 741 276.502 C 679.287 237.498, 675.069 234.988, 671.316 235.035 C 669.767 235.055, 667.425 235.667, 666.110 236.396" stroke="none" fill="#777b83" fill-rule="evenodd"/></svg>